<mxfile host="Electron" agent="Mozilla/5.0 (Windows NT 10.0; Win64; x64) AppleWebKit/537.36 (KHTML, like Gecko) draw.io/26.0.9 Chrome/128.0.6613.186 Electron/32.2.5 Safari/537.36" version="26.0.9">
  <diagram name="Page-1" id="xpZkZ2weexCkq__8deuh">
    <mxGraphModel dx="3293" dy="2038" grid="1" gridSize="10" guides="1" tooltips="1" connect="1" arrows="1" fold="1" page="1" pageScale="1" pageWidth="850" pageHeight="1100" background="#ffffff" math="0" shadow="1">
      <root>
        <mxCell id="0" />
        <mxCell id="1" parent="0" />
        <mxCell id="8pmaff90y4CfNgK7AaEy-73" style="edgeStyle=orthogonalEdgeStyle;rounded=0;orthogonalLoop=1;jettySize=auto;html=1;entryX=0.5;entryY=0;entryDx=0;entryDy=0;" parent="1" source="8pmaff90y4CfNgK7AaEy-1" target="8pmaff90y4CfNgK7AaEy-72" edge="1">
          <mxGeometry relative="1" as="geometry" />
        </mxCell>
        <mxCell id="8pmaff90y4CfNgK7AaEy-1" value="USER" style="rounded=1;whiteSpace=wrap;html=1;fillColor=#fff2cc;strokeColor=#d6b656;" parent="1" vertex="1">
          <mxGeometry x="380" y="-70" width="120" height="50" as="geometry" />
        </mxCell>
        <mxCell id="8pmaff90y4CfNgK7AaEy-5" value="&lt;h1 style=&quot;margin-top: 0px;&quot;&gt;&lt;span style=&quot;font-weight: normal;&quot;&gt;REGISTRATION&lt;/span&gt;&lt;/h1&gt;&lt;h1 style=&quot;margin-top: 0px;&quot;&gt;&lt;span style=&quot;background-color: transparent; color: light-dark(rgb(0, 0, 0), rgb(255, 255, 255)); font-weight: normal;&quot;&gt;LOG - IN&lt;/span&gt;&lt;/h1&gt;&lt;div&gt;&lt;font style=&quot;font-size: 24px;&quot;&gt;LOG - OUT&lt;/font&gt;&lt;/div&gt;" style="text;html=1;whiteSpace=wrap;overflow=hidden;rounded=0;" parent="1" vertex="1">
          <mxGeometry x="-1365" y="-500" width="180" height="120" as="geometry" />
        </mxCell>
        <mxCell id="8pmaff90y4CfNgK7AaEy-47" style="edgeStyle=orthogonalEdgeStyle;rounded=0;orthogonalLoop=1;jettySize=auto;html=1;entryX=0.5;entryY=0;entryDx=0;entryDy=0;" parent="1" source="8pmaff90y4CfNgK7AaEy-44" target="8pmaff90y4CfNgK7AaEy-46" edge="1">
          <mxGeometry relative="1" as="geometry" />
        </mxCell>
        <mxCell id="8pmaff90y4CfNgK7AaEy-44" value="Registration" style="rounded=1;whiteSpace=wrap;html=1;" parent="1" vertex="1">
          <mxGeometry x="380" y="120" width="120" height="60" as="geometry" />
        </mxCell>
        <mxCell id="8pmaff90y4CfNgK7AaEy-49" style="edgeStyle=orthogonalEdgeStyle;rounded=0;orthogonalLoop=1;jettySize=auto;html=1;entryX=0.5;entryY=0;entryDx=0;entryDy=0;" parent="1" source="8pmaff90y4CfNgK7AaEy-46" target="8pmaff90y4CfNgK7AaEy-48" edge="1">
          <mxGeometry relative="1" as="geometry" />
        </mxCell>
        <mxCell id="8pmaff90y4CfNgK7AaEy-46" value="UI Input" style="rounded=1;whiteSpace=wrap;html=1;" parent="1" vertex="1">
          <mxGeometry x="380" y="230" width="120" height="60" as="geometry" />
        </mxCell>
        <mxCell id="8pmaff90y4CfNgK7AaEy-57" style="edgeStyle=orthogonalEdgeStyle;rounded=0;orthogonalLoop=1;jettySize=auto;html=1;entryX=0.5;entryY=0;entryDx=0;entryDy=0;textShadow=1;shadow=0;flowAnimation=1;" parent="1" source="8pmaff90y4CfNgK7AaEy-48" target="8pmaff90y4CfNgK7AaEy-50" edge="1">
          <mxGeometry relative="1" as="geometry" />
        </mxCell>
        <mxCell id="8pmaff90y4CfNgK7AaEy-59" style="edgeStyle=orthogonalEdgeStyle;rounded=0;orthogonalLoop=1;jettySize=auto;html=1;entryX=0.5;entryY=0;entryDx=0;entryDy=0;textShadow=1;shadow=0;flowAnimation=1;" parent="1" source="8pmaff90y4CfNgK7AaEy-48" target="8pmaff90y4CfNgK7AaEy-53" edge="1">
          <mxGeometry relative="1" as="geometry" />
        </mxCell>
        <mxCell id="8pmaff90y4CfNgK7AaEy-60" style="edgeStyle=orthogonalEdgeStyle;rounded=0;orthogonalLoop=1;jettySize=auto;html=1;entryX=0.5;entryY=0;entryDx=0;entryDy=0;textShadow=1;shadow=0;flowAnimation=1;" parent="1" source="8pmaff90y4CfNgK7AaEy-48" target="8pmaff90y4CfNgK7AaEy-54" edge="1">
          <mxGeometry relative="1" as="geometry" />
        </mxCell>
        <mxCell id="8pmaff90y4CfNgK7AaEy-48" value="Front-End Validation" style="rounded=1;whiteSpace=wrap;html=1;shadow=0;" parent="1" vertex="1">
          <mxGeometry x="380" y="340" width="120" height="60" as="geometry" />
        </mxCell>
        <mxCell id="8pmaff90y4CfNgK7AaEy-66" style="edgeStyle=orthogonalEdgeStyle;rounded=0;orthogonalLoop=1;jettySize=auto;html=1;entryX=0.25;entryY=0;entryDx=0;entryDy=0;flowAnimation=1;" parent="1" source="8pmaff90y4CfNgK7AaEy-50" target="8pmaff90y4CfNgK7AaEy-62" edge="1">
          <mxGeometry relative="1" as="geometry">
            <Array as="points">
              <mxPoint x="230" y="610" />
              <mxPoint x="410" y="610" />
            </Array>
          </mxGeometry>
        </mxCell>
        <mxCell id="8pmaff90y4CfNgK7AaEy-50" value="User Name" style="rounded=1;whiteSpace=wrap;html=1;textShadow=1;shadow=0;" parent="1" vertex="1">
          <mxGeometry x="170" y="450" width="120" height="60" as="geometry" />
        </mxCell>
        <mxCell id="8pmaff90y4CfNgK7AaEy-67" style="edgeStyle=orthogonalEdgeStyle;rounded=0;orthogonalLoop=1;jettySize=auto;html=1;entryX=0.5;entryY=0;entryDx=0;entryDy=0;flowAnimation=1;" parent="1" source="8pmaff90y4CfNgK7AaEy-51" target="8pmaff90y4CfNgK7AaEy-62" edge="1">
          <mxGeometry relative="1" as="geometry" />
        </mxCell>
        <mxCell id="8pmaff90y4CfNgK7AaEy-51" value="Email" style="rounded=1;whiteSpace=wrap;html=1;textShadow=1;shadow=0;" parent="1" vertex="1">
          <mxGeometry x="310" y="450" width="120" height="60" as="geometry" />
        </mxCell>
        <mxCell id="8pmaff90y4CfNgK7AaEy-68" style="edgeStyle=orthogonalEdgeStyle;rounded=0;orthogonalLoop=1;jettySize=auto;html=1;flowAnimation=1;" parent="1" source="8pmaff90y4CfNgK7AaEy-53" edge="1">
          <mxGeometry relative="1" as="geometry">
            <mxPoint x="440" y="660" as="targetPoint" />
            <Array as="points">
              <mxPoint x="510" y="585" />
              <mxPoint x="441" y="585" />
            </Array>
          </mxGeometry>
        </mxCell>
        <mxCell id="8pmaff90y4CfNgK7AaEy-53" value="Password" style="rounded=1;whiteSpace=wrap;html=1;textShadow=1;shadow=0;" parent="1" vertex="1">
          <mxGeometry x="450" y="450" width="120" height="60" as="geometry" />
        </mxCell>
        <mxCell id="8pmaff90y4CfNgK7AaEy-69" style="edgeStyle=orthogonalEdgeStyle;rounded=0;orthogonalLoop=1;jettySize=auto;html=1;entryX=0.75;entryY=0;entryDx=0;entryDy=0;shadow=0;flowAnimation=1;" parent="1" source="8pmaff90y4CfNgK7AaEy-54" target="8pmaff90y4CfNgK7AaEy-62" edge="1">
          <mxGeometry relative="1" as="geometry">
            <Array as="points">
              <mxPoint x="650" y="610" />
              <mxPoint x="470" y="610" />
            </Array>
          </mxGeometry>
        </mxCell>
        <mxCell id="8pmaff90y4CfNgK7AaEy-54" value="Confirm Password" style="rounded=1;whiteSpace=wrap;html=1;textShadow=1;shadow=0;" parent="1" vertex="1">
          <mxGeometry x="590" y="450" width="120" height="60" as="geometry" />
        </mxCell>
        <mxCell id="8pmaff90y4CfNgK7AaEy-58" style="edgeStyle=orthogonalEdgeStyle;rounded=0;orthogonalLoop=1;jettySize=auto;html=1;entryX=0.425;entryY=-0.05;entryDx=0;entryDy=0;entryPerimeter=0;textShadow=1;shadow=0;flowAnimation=1;" parent="1" source="8pmaff90y4CfNgK7AaEy-48" target="8pmaff90y4CfNgK7AaEy-51" edge="1">
          <mxGeometry relative="1" as="geometry" />
        </mxCell>
        <mxCell id="8pmaff90y4CfNgK7AaEy-64" style="edgeStyle=orthogonalEdgeStyle;rounded=0;orthogonalLoop=1;jettySize=auto;html=1;entryX=0.5;entryY=0;entryDx=0;entryDy=0;" parent="1" source="8pmaff90y4CfNgK7AaEy-61" target="8pmaff90y4CfNgK7AaEy-63" edge="1">
          <mxGeometry relative="1" as="geometry" />
        </mxCell>
        <mxCell id="8pmaff90y4CfNgK7AaEy-61" value="Back End&lt;div&gt;End Points&lt;br&gt;&lt;/div&gt;" style="rounded=1;whiteSpace=wrap;html=1;" parent="1" vertex="1">
          <mxGeometry x="380" y="760" width="120" height="60" as="geometry" />
        </mxCell>
        <mxCell id="8pmaff90y4CfNgK7AaEy-65" style="edgeStyle=orthogonalEdgeStyle;rounded=0;orthogonalLoop=1;jettySize=auto;html=1;entryX=0.5;entryY=0;entryDx=0;entryDy=0;" parent="1" source="8pmaff90y4CfNgK7AaEy-62" target="8pmaff90y4CfNgK7AaEy-61" edge="1">
          <mxGeometry relative="1" as="geometry" />
        </mxCell>
        <mxCell id="8pmaff90y4CfNgK7AaEy-62" value="API Request For&amp;nbsp;&lt;div&gt;User Data&lt;/div&gt;" style="rounded=1;whiteSpace=wrap;html=1;" parent="1" vertex="1">
          <mxGeometry x="380" y="660" width="120" height="60" as="geometry" />
        </mxCell>
        <mxCell id="8pmaff90y4CfNgK7AaEy-63" value="Validation&lt;div&gt;(User-Name, Email)&lt;/div&gt;" style="rounded=1;whiteSpace=wrap;html=1;" parent="1" vertex="1">
          <mxGeometry x="380" y="860" width="120" height="60" as="geometry" />
        </mxCell>
        <mxCell id="ClVZjMZ_LSxWoZAGo82H-1" style="edgeStyle=orthogonalEdgeStyle;rounded=0;orthogonalLoop=1;jettySize=auto;html=1;entryX=0;entryY=0.5;entryDx=0;entryDy=0;" parent="1" source="8pmaff90y4CfNgK7AaEy-70" target="8pmaff90y4CfNgK7AaEy-75" edge="1">
          <mxGeometry relative="1" as="geometry" />
        </mxCell>
        <mxCell id="8pmaff90y4CfNgK7AaEy-70" value="User Data" style="shape=cylinder3;whiteSpace=wrap;html=1;boundedLbl=1;backgroundOutline=1;size=15;" parent="1" vertex="1">
          <mxGeometry x="410" y="970" width="60" height="80" as="geometry" />
        </mxCell>
        <mxCell id="8pmaff90y4CfNgK7AaEy-71" style="edgeStyle=orthogonalEdgeStyle;rounded=0;orthogonalLoop=1;jettySize=auto;html=1;entryX=0.5;entryY=0;entryDx=0;entryDy=0;entryPerimeter=0;" parent="1" source="8pmaff90y4CfNgK7AaEy-63" target="8pmaff90y4CfNgK7AaEy-70" edge="1">
          <mxGeometry relative="1" as="geometry" />
        </mxCell>
        <mxCell id="8pmaff90y4CfNgK7AaEy-74" style="edgeStyle=orthogonalEdgeStyle;rounded=0;orthogonalLoop=1;jettySize=auto;html=1;entryX=0.5;entryY=0;entryDx=0;entryDy=0;" parent="1" source="8pmaff90y4CfNgK7AaEy-72" target="8pmaff90y4CfNgK7AaEy-44" edge="1">
          <mxGeometry relative="1" as="geometry" />
        </mxCell>
        <mxCell id="8pmaff90y4CfNgK7AaEy-72" value="Browser" style="rounded=1;whiteSpace=wrap;html=1;" parent="1" vertex="1">
          <mxGeometry x="380" y="20" width="120" height="60" as="geometry" />
        </mxCell>
        <mxCell id="8pmaff90y4CfNgK7AaEy-83" style="edgeStyle=orthogonalEdgeStyle;rounded=0;orthogonalLoop=1;jettySize=auto;html=1;entryX=1;entryY=0.5;entryDx=0;entryDy=0;flowAnimation=1;" parent="1" source="8pmaff90y4CfNgK7AaEy-75" target="8pmaff90y4CfNgK7AaEy-72" edge="1">
          <mxGeometry relative="1" as="geometry">
            <Array as="points">
              <mxPoint x="740" y="945" />
              <mxPoint x="740" y="50" />
            </Array>
          </mxGeometry>
        </mxCell>
        <mxCell id="8pmaff90y4CfNgK7AaEy-75" value="Success" style="rounded=1;whiteSpace=wrap;html=1;" parent="1" vertex="1">
          <mxGeometry x="520" y="995" width="120" height="30" as="geometry" />
        </mxCell>
        <mxCell id="8pmaff90y4CfNgK7AaEy-82" style="edgeStyle=orthogonalEdgeStyle;rounded=0;orthogonalLoop=1;jettySize=auto;html=1;entryX=0;entryY=0.5;entryDx=0;entryDy=0;flowAnimation=1;" parent="1" source="8pmaff90y4CfNgK7AaEy-76" target="8pmaff90y4CfNgK7AaEy-72" edge="1">
          <mxGeometry relative="1" as="geometry">
            <Array as="points">
              <mxPoint x="130" y="945" />
              <mxPoint x="130" y="50" />
            </Array>
          </mxGeometry>
        </mxCell>
        <mxCell id="8pmaff90y4CfNgK7AaEy-76" value="Failed" style="rounded=1;whiteSpace=wrap;html=1;" parent="1" vertex="1">
          <mxGeometry x="240" y="930" width="120" height="30" as="geometry" />
        </mxCell>
        <mxCell id="8pmaff90y4CfNgK7AaEy-80" value="" style="endArrow=none;html=1;rounded=0;entryX=0;entryY=0.5;entryDx=0;entryDy=0;" parent="1" edge="1">
          <mxGeometry width="50" height="50" relative="1" as="geometry">
            <mxPoint x="360" y="944.5" as="sourcePoint" />
            <mxPoint x="440" y="945" as="targetPoint" />
          </mxGeometry>
        </mxCell>
        <mxCell id="ClVZjMZ_LSxWoZAGo82H-15" style="edgeStyle=orthogonalEdgeStyle;rounded=0;orthogonalLoop=1;jettySize=auto;html=1;entryX=0.5;entryY=0;entryDx=0;entryDy=0;" parent="1" source="ClVZjMZ_LSxWoZAGo82H-2" target="ClVZjMZ_LSxWoZAGo82H-7" edge="1">
          <mxGeometry relative="1" as="geometry" />
        </mxCell>
        <mxCell id="ClVZjMZ_LSxWoZAGo82H-2" value="USER" style="rounded=1;whiteSpace=wrap;html=1;fillColor=#fff2cc;strokeColor=#d6b656;" parent="1" vertex="1">
          <mxGeometry x="-400" y="-100" width="120" height="50" as="geometry" />
        </mxCell>
        <mxCell id="ClVZjMZ_LSxWoZAGo82H-3" value="Registration" style="text;strokeColor=none;fillColor=none;html=1;fontSize=24;fontStyle=1;verticalAlign=middle;align=center;" parent="1" vertex="1">
          <mxGeometry x="390" y="-160" width="100" height="40" as="geometry" />
        </mxCell>
        <mxCell id="ClVZjMZ_LSxWoZAGo82H-16" style="edgeStyle=orthogonalEdgeStyle;rounded=0;orthogonalLoop=1;jettySize=auto;html=1;entryX=0.5;entryY=0;entryDx=0;entryDy=0;" parent="1" source="ClVZjMZ_LSxWoZAGo82H-7" target="ClVZjMZ_LSxWoZAGo82H-8" edge="1">
          <mxGeometry relative="1" as="geometry" />
        </mxCell>
        <mxCell id="ClVZjMZ_LSxWoZAGo82H-43" style="edgeStyle=orthogonalEdgeStyle;rounded=0;orthogonalLoop=1;jettySize=auto;html=1;entryX=0.5;entryY=1;entryDx=0;entryDy=0;flowAnimation=1;" parent="1" source="ClVZjMZ_LSxWoZAGo82H-7" target="ClVZjMZ_LSxWoZAGo82H-42" edge="1">
          <mxGeometry relative="1" as="geometry" />
        </mxCell>
        <mxCell id="ClVZjMZ_LSxWoZAGo82H-7" value="Browser" style="rounded=1;whiteSpace=wrap;html=1;" parent="1" vertex="1">
          <mxGeometry x="-400" y="-10" width="120" height="60" as="geometry" />
        </mxCell>
        <mxCell id="ClVZjMZ_LSxWoZAGo82H-17" style="edgeStyle=orthogonalEdgeStyle;rounded=0;orthogonalLoop=1;jettySize=auto;html=1;entryX=0.5;entryY=0;entryDx=0;entryDy=0;" parent="1" source="ClVZjMZ_LSxWoZAGo82H-8" target="ClVZjMZ_LSxWoZAGo82H-9" edge="1">
          <mxGeometry relative="1" as="geometry" />
        </mxCell>
        <mxCell id="ClVZjMZ_LSxWoZAGo82H-8" value="Log-In&amp;nbsp;&lt;div&gt;Page&lt;/div&gt;" style="rounded=1;whiteSpace=wrap;html=1;" parent="1" vertex="1">
          <mxGeometry x="-400" y="90" width="120" height="60" as="geometry" />
        </mxCell>
        <mxCell id="ClVZjMZ_LSxWoZAGo82H-18" style="edgeStyle=orthogonalEdgeStyle;rounded=0;orthogonalLoop=1;jettySize=auto;html=1;entryX=0.5;entryY=0;entryDx=0;entryDy=0;" parent="1" source="ClVZjMZ_LSxWoZAGo82H-9" target="ClVZjMZ_LSxWoZAGo82H-10" edge="1">
          <mxGeometry relative="1" as="geometry" />
        </mxCell>
        <mxCell id="ClVZjMZ_LSxWoZAGo82H-9" value="User Input" style="rounded=1;whiteSpace=wrap;html=1;" parent="1" vertex="1">
          <mxGeometry x="-400" y="200" width="120" height="60" as="geometry" />
        </mxCell>
        <mxCell id="ClVZjMZ_LSxWoZAGo82H-19" style="edgeStyle=orthogonalEdgeStyle;rounded=0;orthogonalLoop=1;jettySize=auto;html=1;entryX=0.5;entryY=0;entryDx=0;entryDy=0;flowAnimation=1;" parent="1" source="ClVZjMZ_LSxWoZAGo82H-10" target="ClVZjMZ_LSxWoZAGo82H-12" edge="1">
          <mxGeometry relative="1" as="geometry" />
        </mxCell>
        <mxCell id="ClVZjMZ_LSxWoZAGo82H-21" style="edgeStyle=orthogonalEdgeStyle;rounded=0;orthogonalLoop=1;jettySize=auto;html=1;entryX=0.5;entryY=0;entryDx=0;entryDy=0;flowAnimation=1;" parent="1" source="ClVZjMZ_LSxWoZAGo82H-10" target="ClVZjMZ_LSxWoZAGo82H-14" edge="1">
          <mxGeometry relative="1" as="geometry" />
        </mxCell>
        <mxCell id="ClVZjMZ_LSxWoZAGo82H-10" value="Front-End Validation" style="rounded=1;whiteSpace=wrap;html=1;shadow=0;" parent="1" vertex="1">
          <mxGeometry x="-400" y="310" width="120" height="60" as="geometry" />
        </mxCell>
        <mxCell id="ClVZjMZ_LSxWoZAGo82H-26" style="edgeStyle=orthogonalEdgeStyle;rounded=0;orthogonalLoop=1;jettySize=auto;html=1;entryX=0.5;entryY=0;entryDx=0;entryDy=0;flowAnimation=1;" parent="1" source="ClVZjMZ_LSxWoZAGo82H-12" target="ClVZjMZ_LSxWoZAGo82H-22" edge="1">
          <mxGeometry relative="1" as="geometry" />
        </mxCell>
        <mxCell id="ClVZjMZ_LSxWoZAGo82H-12" value="Email" style="rounded=1;whiteSpace=wrap;html=1;textShadow=1;shadow=0;" parent="1" vertex="1">
          <mxGeometry x="-530" y="420" width="120" height="60" as="geometry" />
        </mxCell>
        <mxCell id="ClVZjMZ_LSxWoZAGo82H-27" style="edgeStyle=orthogonalEdgeStyle;rounded=0;orthogonalLoop=1;jettySize=auto;html=1;entryX=0.5;entryY=0;entryDx=0;entryDy=0;flowAnimation=1;" parent="1" source="ClVZjMZ_LSxWoZAGo82H-14" target="ClVZjMZ_LSxWoZAGo82H-22" edge="1">
          <mxGeometry relative="1" as="geometry" />
        </mxCell>
        <mxCell id="ClVZjMZ_LSxWoZAGo82H-14" value="Password" style="rounded=1;whiteSpace=wrap;html=1;textShadow=1;shadow=0;" parent="1" vertex="1">
          <mxGeometry x="-270" y="420" width="120" height="60" as="geometry" />
        </mxCell>
        <mxCell id="ClVZjMZ_LSxWoZAGo82H-28" style="edgeStyle=orthogonalEdgeStyle;rounded=0;orthogonalLoop=1;jettySize=auto;html=1;entryX=0.5;entryY=0;entryDx=0;entryDy=0;" parent="1" source="ClVZjMZ_LSxWoZAGo82H-22" target="ClVZjMZ_LSxWoZAGo82H-23" edge="1">
          <mxGeometry relative="1" as="geometry" />
        </mxCell>
        <mxCell id="ClVZjMZ_LSxWoZAGo82H-22" value="API Request Including User Data" style="rounded=1;whiteSpace=wrap;html=1;" parent="1" vertex="1">
          <mxGeometry x="-400" y="630" width="120" height="60" as="geometry" />
        </mxCell>
        <mxCell id="ClVZjMZ_LSxWoZAGo82H-29" style="edgeStyle=orthogonalEdgeStyle;rounded=0;orthogonalLoop=1;jettySize=auto;html=1;entryX=0.5;entryY=0;entryDx=0;entryDy=0;" parent="1" source="ClVZjMZ_LSxWoZAGo82H-23" target="ClVZjMZ_LSxWoZAGo82H-24" edge="1">
          <mxGeometry relative="1" as="geometry" />
        </mxCell>
        <mxCell id="ClVZjMZ_LSxWoZAGo82H-23" value="Back End&amp;nbsp;&lt;div&gt;End Points&lt;/div&gt;" style="rounded=1;whiteSpace=wrap;html=1;" parent="1" vertex="1">
          <mxGeometry x="-400" y="730" width="120" height="60" as="geometry" />
        </mxCell>
        <mxCell id="ClVZjMZ_LSxWoZAGo82H-35" style="edgeStyle=orthogonalEdgeStyle;rounded=0;orthogonalLoop=1;jettySize=auto;html=1;entryX=0.5;entryY=0;entryDx=0;entryDy=0;" parent="1" source="ClVZjMZ_LSxWoZAGo82H-24" target="ClVZjMZ_LSxWoZAGo82H-32" edge="1">
          <mxGeometry relative="1" as="geometry" />
        </mxCell>
        <mxCell id="ClVZjMZ_LSxWoZAGo82H-24" value="Back End&amp;nbsp;&lt;div&gt;Processing&lt;/div&gt;" style="rounded=1;whiteSpace=wrap;html=1;" parent="1" vertex="1">
          <mxGeometry x="-400" y="830" width="120" height="60" as="geometry" />
        </mxCell>
        <mxCell id="ClVZjMZ_LSxWoZAGo82H-25" value="DataBase" style="shape=cylinder3;whiteSpace=wrap;html=1;boundedLbl=1;backgroundOutline=1;size=15;" parent="1" vertex="1">
          <mxGeometry x="-370" y="1010" width="60" height="80" as="geometry" />
        </mxCell>
        <mxCell id="ClVZjMZ_LSxWoZAGo82H-38" style="edgeStyle=orthogonalEdgeStyle;rounded=0;orthogonalLoop=1;jettySize=auto;html=1;entryX=0;entryY=0.5;entryDx=0;entryDy=0;" parent="1" source="ClVZjMZ_LSxWoZAGo82H-32" target="ClVZjMZ_LSxWoZAGo82H-36" edge="1">
          <mxGeometry relative="1" as="geometry" />
        </mxCell>
        <mxCell id="ClVZjMZ_LSxWoZAGo82H-32" value="Compare With Database, if Done Then Pass Authentication Token" style="rounded=1;whiteSpace=wrap;html=1;" parent="1" vertex="1">
          <mxGeometry x="-400" y="920" width="120" height="60" as="geometry" />
        </mxCell>
        <mxCell id="ClVZjMZ_LSxWoZAGo82H-34" style="edgeStyle=orthogonalEdgeStyle;rounded=0;orthogonalLoop=1;jettySize=auto;html=1;entryX=0.5;entryY=0;entryDx=0;entryDy=0;entryPerimeter=0;" parent="1" source="ClVZjMZ_LSxWoZAGo82H-32" target="ClVZjMZ_LSxWoZAGo82H-25" edge="1">
          <mxGeometry relative="1" as="geometry" />
        </mxCell>
        <mxCell id="ClVZjMZ_LSxWoZAGo82H-40" style="edgeStyle=orthogonalEdgeStyle;rounded=0;orthogonalLoop=1;jettySize=auto;html=1;entryX=1;entryY=0.5;entryDx=0;entryDy=0;flowAnimation=1;" parent="1" source="ClVZjMZ_LSxWoZAGo82H-36" target="ClVZjMZ_LSxWoZAGo82H-7" edge="1">
          <mxGeometry relative="1" as="geometry">
            <Array as="points">
              <mxPoint x="-80" y="950" />
              <mxPoint x="-80" y="20" />
            </Array>
          </mxGeometry>
        </mxCell>
        <mxCell id="ClVZjMZ_LSxWoZAGo82H-36" value="Success,Then Pass&lt;div&gt;Authentication Token With Active Session&lt;/div&gt;" style="rounded=1;whiteSpace=wrap;html=1;" parent="1" vertex="1">
          <mxGeometry x="-240" y="920" width="120" height="60" as="geometry" />
        </mxCell>
        <mxCell id="ClVZjMZ_LSxWoZAGo82H-39" style="edgeStyle=orthogonalEdgeStyle;rounded=0;orthogonalLoop=1;jettySize=auto;html=1;entryX=0;entryY=0.5;entryDx=0;entryDy=0;" parent="1" source="ClVZjMZ_LSxWoZAGo82H-37" target="ClVZjMZ_LSxWoZAGo82H-32" edge="1">
          <mxGeometry relative="1" as="geometry" />
        </mxCell>
        <mxCell id="ClVZjMZ_LSxWoZAGo82H-41" style="edgeStyle=orthogonalEdgeStyle;rounded=0;orthogonalLoop=1;jettySize=auto;html=1;entryX=0;entryY=0.5;entryDx=0;entryDy=0;flowAnimation=1;" parent="1" source="ClVZjMZ_LSxWoZAGo82H-37" target="ClVZjMZ_LSxWoZAGo82H-8" edge="1">
          <mxGeometry relative="1" as="geometry">
            <Array as="points">
              <mxPoint x="-640" y="950" />
              <mxPoint x="-640" y="120" />
            </Array>
          </mxGeometry>
        </mxCell>
        <mxCell id="ClVZjMZ_LSxWoZAGo82H-37" value="Failed, Then Redirect&amp;nbsp;&lt;div&gt;to the Login Page&lt;/div&gt;" style="rounded=1;whiteSpace=wrap;html=1;" parent="1" vertex="1">
          <mxGeometry x="-560" y="920" width="120" height="60" as="geometry" />
        </mxCell>
        <mxCell id="ClVZjMZ_LSxWoZAGo82H-42" value="User Profile&amp;nbsp;" style="rounded=1;whiteSpace=wrap;html=1;" parent="1" vertex="1">
          <mxGeometry x="-160" y="-250" width="120" height="60" as="geometry" />
        </mxCell>
        <mxCell id="ClVZjMZ_LSxWoZAGo82H-44" value="Login" style="text;strokeColor=none;fillColor=none;html=1;fontSize=24;fontStyle=1;verticalAlign=middle;align=center;" parent="1" vertex="1">
          <mxGeometry x="-390" y="-180" width="100" height="40" as="geometry" />
        </mxCell>
        <mxCell id="iGgVTCNs6wABauXSGzKO-2" value="Logout" style="text;strokeColor=none;fillColor=none;html=1;fontSize=24;fontStyle=1;verticalAlign=middle;align=center;" vertex="1" parent="1">
          <mxGeometry x="-1330" y="-180" width="100" height="40" as="geometry" />
        </mxCell>
        <mxCell id="iGgVTCNs6wABauXSGzKO-16" style="edgeStyle=orthogonalEdgeStyle;rounded=0;orthogonalLoop=1;jettySize=auto;html=1;entryX=0.5;entryY=0;entryDx=0;entryDy=0;" edge="1" parent="1" source="iGgVTCNs6wABauXSGzKO-6" target="iGgVTCNs6wABauXSGzKO-14">
          <mxGeometry relative="1" as="geometry" />
        </mxCell>
        <mxCell id="iGgVTCNs6wABauXSGzKO-6" value="USER" style="rounded=1;whiteSpace=wrap;html=1;fillColor=#fff2cc;strokeColor=#d6b656;" vertex="1" parent="1">
          <mxGeometry x="-1340" y="-100" width="120" height="50" as="geometry" />
        </mxCell>
        <mxCell id="iGgVTCNs6wABauXSGzKO-18" style="edgeStyle=orthogonalEdgeStyle;rounded=0;orthogonalLoop=1;jettySize=auto;html=1;entryX=0.5;entryY=0;entryDx=0;entryDy=0;" edge="1" parent="1" source="iGgVTCNs6wABauXSGzKO-7" target="iGgVTCNs6wABauXSGzKO-8">
          <mxGeometry relative="1" as="geometry" />
        </mxCell>
        <mxCell id="iGgVTCNs6wABauXSGzKO-7" value="Logout&lt;div&gt;UI&lt;/div&gt;" style="rounded=1;whiteSpace=wrap;html=1;" vertex="1" parent="1">
          <mxGeometry x="-1340" y="90" width="120" height="60" as="geometry" />
        </mxCell>
        <mxCell id="iGgVTCNs6wABauXSGzKO-10" style="edgeStyle=orthogonalEdgeStyle;rounded=0;orthogonalLoop=1;jettySize=auto;html=1;entryX=0.5;entryY=0;entryDx=0;entryDy=0;" edge="1" parent="1" source="iGgVTCNs6wABauXSGzKO-8" target="iGgVTCNs6wABauXSGzKO-9">
          <mxGeometry relative="1" as="geometry" />
        </mxCell>
        <mxCell id="iGgVTCNs6wABauXSGzKO-8" value="Front-End Request&lt;div&gt;Of Logout&lt;/div&gt;" style="rounded=1;whiteSpace=wrap;html=1;" vertex="1" parent="1">
          <mxGeometry x="-1340" y="190" width="120" height="60" as="geometry" />
        </mxCell>
        <mxCell id="iGgVTCNs6wABauXSGzKO-12" style="edgeStyle=orthogonalEdgeStyle;rounded=0;orthogonalLoop=1;jettySize=auto;html=1;entryX=0.5;entryY=0;entryDx=0;entryDy=0;" edge="1" parent="1" source="iGgVTCNs6wABauXSGzKO-9" target="iGgVTCNs6wABauXSGzKO-11">
          <mxGeometry relative="1" as="geometry" />
        </mxCell>
        <mxCell id="iGgVTCNs6wABauXSGzKO-9" value="API Request" style="rounded=1;whiteSpace=wrap;html=1;" vertex="1" parent="1">
          <mxGeometry x="-1340" y="280" width="120" height="60" as="geometry" />
        </mxCell>
        <mxCell id="iGgVTCNs6wABauXSGzKO-20" style="edgeStyle=orthogonalEdgeStyle;rounded=0;orthogonalLoop=1;jettySize=auto;html=1;entryX=1;entryY=0.5;entryDx=0;entryDy=0;flowAnimation=1;" edge="1" parent="1" source="iGgVTCNs6wABauXSGzKO-11" target="iGgVTCNs6wABauXSGzKO-14">
          <mxGeometry relative="1" as="geometry">
            <Array as="points">
              <mxPoint x="-1160" y="409.99999999999955" />
              <mxPoint x="-1160" y="20" />
            </Array>
          </mxGeometry>
        </mxCell>
        <mxCell id="iGgVTCNs6wABauXSGzKO-11" value="Back End&amp;nbsp;&lt;div&gt;Processing&lt;/div&gt;&lt;div&gt;(Delete The Session, or cookie)&lt;span style=&quot;background-color: transparent; color: light-dark(rgb(0, 0, 0), rgb(255, 255, 255));&quot;&gt;&amp;nbsp;&lt;/span&gt;&lt;/div&gt;" style="rounded=1;whiteSpace=wrap;html=1;" vertex="1" parent="1">
          <mxGeometry x="-1340" y="380" width="120" height="60" as="geometry" />
        </mxCell>
        <mxCell id="iGgVTCNs6wABauXSGzKO-17" style="edgeStyle=orthogonalEdgeStyle;rounded=0;orthogonalLoop=1;jettySize=auto;html=1;" edge="1" parent="1" source="iGgVTCNs6wABauXSGzKO-14" target="iGgVTCNs6wABauXSGzKO-7">
          <mxGeometry relative="1" as="geometry" />
        </mxCell>
        <mxCell id="iGgVTCNs6wABauXSGzKO-24" style="edgeStyle=orthogonalEdgeStyle;rounded=0;orthogonalLoop=1;jettySize=auto;html=1;exitX=1;exitY=0.5;exitDx=0;exitDy=0;entryX=0;entryY=0.5;entryDx=0;entryDy=0;" edge="1" parent="1" source="iGgVTCNs6wABauXSGzKO-14" target="iGgVTCNs6wABauXSGzKO-21">
          <mxGeometry relative="1" as="geometry">
            <Array as="points">
              <mxPoint x="-1220" y="-20" />
            </Array>
          </mxGeometry>
        </mxCell>
        <mxCell id="iGgVTCNs6wABauXSGzKO-14" value="Browser" style="rounded=1;whiteSpace=wrap;html=1;" vertex="1" parent="1">
          <mxGeometry x="-1340" y="-10" width="120" height="60" as="geometry" />
        </mxCell>
        <mxCell id="iGgVTCNs6wABauXSGzKO-21" value="Main Page" style="rounded=1;whiteSpace=wrap;html=1;" vertex="1" parent="1">
          <mxGeometry x="-1140" y="-50" width="120" height="60" as="geometry" />
        </mxCell>
        <mxCell id="iGgVTCNs6wABauXSGzKO-23" style="edgeStyle=orthogonalEdgeStyle;rounded=0;orthogonalLoop=1;jettySize=auto;html=1;exitX=1;exitY=0.5;exitDx=0;exitDy=0;entryX=1;entryY=0.25;entryDx=0;entryDy=0;" edge="1" parent="1" source="iGgVTCNs6wABauXSGzKO-14" target="iGgVTCNs6wABauXSGzKO-14">
          <mxGeometry relative="1" as="geometry" />
        </mxCell>
      </root>
    </mxGraphModel>
  </diagram>
</mxfile>
